# xmcd CD Database Entry
#
# Track frame offsets:
# 200
# 15922
# 30840
# 48760
# 66345
# 80790
# 139612
# 152802
# 164342
# 173810
# 188497
# 204405
# 217467
# 230177
#
# Disc length: 3264 seconds
#
# Revision: 1
# Processed by: cddbd v1.4PL0 Copyright (c) Steve Scherf et al.
# Submitted via: tcd 2.0b
#
DISCID=ba0cbe0e
DTITLE=Joy To The World - Volume 4 Disc 2 - Country-Folk
DYEAR=1900
DGENRE=
TTITLE0=Tennessee Christmas
TTITLE1=Silent Night
TTITLE2=Good King Wenceslas
TTITLE3=O Holy Night
TTITLE4=Sleigh Ride
TTITLE5=God Rest Ye Merry, O Holy Night, Greensleeves, Jesu Joy of Ma
TTITLE5=n's Desiring, O Tannenbaum, Hark! The Herald Angels Sing, Lit
TTITLE5=tle Drummer Boy, Panis Angelicus
TTITLE6=New Star Shining
TTITLE7=Go Tell It on the Mountain
TTITLE8=Away In A Manger
TTITLE9=Christmas, Last Christmas Eve
TTITLE10=Home for the Holidays
TTITLE11=Santa Claus Is Comin' to Town
TTITLE12=Greensleeves
TTITLE13=White Christmas
EXTD=
EXTT0=
EXTT1=
EXTT2=
EXTT3=
EXTT4=
EXTT5=
EXTT6=
EXTT7=
EXTT8=
EXTT9=
EXTT10=
EXTT11=
EXTT12=
EXTT13=
PLAYORDER=
